<svg xmlns="http://www.w3.org/2000/svg" width="240" height="240" viewBox="0 0 240 240" fill="none">
  <!-- Therapeutic foot care: foot + leaf + care symbol -->
  <g transform="translate(90 66) rotate(-6)">
    <ellipse cx="0" cy="66" rx="38" ry="58" fill="#9BD3B0"/>
    <ellipse cx="-31" cy="6" rx="10" ry="12.5" fill="#58AD77"/>
    <ellipse cx="-14" cy="-8" rx="9" ry="11.5" fill="#58AD77"/>
    <ellipse cx="3" cy="-12" rx="8.5" ry="11" fill="#58AD77"/>
    <ellipse cx="19" cy="-7" rx="7.5" ry="10" fill="#58AD77"/>
    <ellipse cx="32" cy="5" rx="6.5" ry="8.5" fill="#58AD77"/>
  </g>
  <!-- Leaf -->
  <path d="M150 118c0-30 22-52 52-52 0 30-22 52-52 52z" fill="#90CFAA"/>
  <path d="M162 106c14-14 28-22 40-24" stroke="#58AD77" stroke-width="3" stroke-linecap="round"/>
  <!-- care plus -->
  <g transform="translate(52 150)">
    <circle cx="0" cy="0" r="18" fill="#58AD77" opacity="0.9"/>
    <path d="M0-9v18M-9 0h18" stroke="#ffffff" stroke-width="4" stroke-linecap="round"/>
  </g>
</svg>
